<?xml version="1.0" encoding="UTF-8"?>
<svg width="222px" height="110px" viewBox="0 0 222 110" version="1.1" xmlns="http://www.w3.org/2000/svg" xmlns:xlink="http://www.w3.org/1999/xlink">

        <g id="Desktop-HD" transform="translate(-193.000000, -173.000000)" fill-rule="nonzero" fill="#FFFFFF">
            <g id="Group" transform="translate(193.000000, 114.000000)">
                <path d="M38.5408931,132.990718 C38.7175479,128.716805 37.0656815,124.569919 33.9987654,121.588047 C30.9318493,118.606176 26.7401616,117.071548 22.4729052,117.368289 L0,117.368289 L0,168.217762 L24.5057702,168.217762 C34.9764175,168.217762 40.6573006,161.450828 40.6573006,152.734571 C40.8442854,148.17096 38.3824406,143.908824 34.3359257,141.790517 C36.9198857,139.58461 38.4478934,136.386925 38.5408931,132.990718 Z M13.3110888,128.924987 L21.6653287,128.924987 C22.7825053,128.978191 23.8267,129.495544 24.5458254,130.35215 C25.2649509,131.208755 25.5936555,132.326767 25.452584,133.436277 C25.4833694,134.496696 25.0775796,135.523278 24.3300706,136.276051 C23.5825616,137.028824 22.5588533,137.441808 21.4982439,137.418465 L13.144004,137.418465 L13.144004,128.89714 L13.3110888,128.924987 Z M23.5589563,156.772454 L13.3110888,156.772454 L13.3110888,148.418214 L23.5032614,148.418214 C24.2555232,148.422027 24.9975025,148.593253 25.6753638,148.919468 C26.9381798,149.847864 27.6244972,151.368321 27.4854491,152.929503 C27.3952218,155.023521 25.6546715,156.665317 23.5589563,156.633216 L23.5589563,156.772454 Z M148.649774,156.855996 C145.084012,156.788588 141.702403,155.259754 139.296316,152.627274 C136.89023,149.994795 135.67083,146.489702 135.923482,142.932263 C135.923482,134.578023 140.936026,129.00853 148.649774,129.00853 C153.625028,128.447726 158.298212,131.496978 159.788761,136.276719 L172.598595,136.276719 C170.649272,122.687155 159.148269,117.006272 148.677622,117.006272 C135.672855,117.006272 122.640241,125.527597 122.640241,143.043653 C122.640241,160.559709 135.672855,168.858254 148.677622,168.858254 C159.510286,168.858254 170.78851,163.288761 172.76568,148.724536 L159.955845,148.724536 C158.753066,153.882429 153.922324,157.356756 148.649774,156.855996 L148.649774,156.855996 Z M207.407928,143.767687 C210.518035,139.806935 212.654656,135.17123 213.64576,130.233818 C214.453337,127.114902 216.625439,126.390868 219.827898,126.5858 L219.827898,117.646764 C207.909182,115.168339 202.952333,120.180883 201.420723,126.363021 C199.889112,132.545158 199.165078,135.524837 196.825891,136.694431 C194.432657,137.442277 191.916624,137.716581 189.418465,137.502007 L189.418465,117.563221 L176.135223,117.563221 L176.135223,168.468389 L189.446312,168.468389 L189.446312,148.975163 C191.555906,149.014186 193.666074,148.939819 195.767687,148.752383 L206.906673,168.384847 L222,168.384847 L222,166.435524 C217.015304,158.944556 212.281234,151.31435 207.407928,143.767687 L207.407928,143.767687 Z M98.1066232,117.591069 L80.7854992,156.549674 L57.8948821,156.549674 L57.8948821,117.591069 L44.5837933,117.591069 L44.5837933,168.496237 L101.225539,168.496237 L101.225539,156.354742 L94.152283,156.354742 L101.225539,140.453838 L113.673357,168.496237 L126.093327,168.496237 L126.093327,166.519067 L104.372303,117.591069 L98.1066232,117.591069 Z M30.6879077,84.090567 L4.14927245,59 L0,59 L0,110.127948 L13.3110888,110.127948 L13.3110888,83.8677873 L40.0725038,110.21149 L43.9989965,110.21149 L43.9989965,59.2227797 L30.6879077,59.2227797 L30.6879077,84.090567 Z M50.543151,97.9864526 L50.543151,110.127948 L101.169844,110.127948 L95.767436,97.9864526 L50.543151,97.9864526 Z M87.162569,78.6046162 L50.543151,78.6046162 L50.543151,90.7461114 L92.5649774,90.7461114 L87.162569,78.6046162 Z M154.998996,59.2227797 L142.551179,87.2651781 L130.103362,59.2227797 L124.645258,59.2227797 L112.197441,87.2651781 L99.7496237,59.2227797 L50.543151,59.2227797 L50.543151,71.364275 L91.8409433,71.364275 L109.050677,110.127948 L115.344205,110.127948 L127.37431,83.0045158 L139.404415,110.127948 L145.697943,110.127948 L167.418966,61.1721024 L167.418966,59.2227797 L154.998996,59.2227797 Z" id="Combined-Shape"></path>
            </g>
        </g>
</svg>